<?xml version="1.0" encoding="utf-8" standalone="no"?>
<!DOCTYPE svg PUBLIC "-//W3C//DTD SVG 1.1//EN" "http://www.w3.org/Graphics/SVG/1.1/DTD/svg11.dtd">
<svg width="6000px" height="6000px" version="1.1" xmlns="http://www.w3.org/2000/svg" xmlns:xlink="http://www.w3.org/1999/xlink">
<g id="ideograms">
<path d="M3000.000,850.000 A2150.000,2150.000 40.000 0,1 3737.019,980.271 L3771.299,886.331 A2250.000,2250.000 0.000 0,0 3000.000,750.000 Z" style="stroke-width:2.0;stroke:rgb(0,0,0);stroke-linecap:round;fill:rgb(255,244,80);"/>
<text x="3430.0" y="736.7" font-size="65.0px" font-family="CMUBright-Roman" style="text-anchor:start;fill:rgb(0,0,0);" transform="rotate(280.0,3430.0,736.7)">Sprint</text>
<path d="M3000.000,850.000 A2150.000,2150.000 40.000 0,1 3737.019,980.271 L3771.299,886.331 A2250.000,2250.000 0.000 0,0 3000.000,750.000 Z" style="stroke-width:2.0;stroke:rgb(0,0,0);stroke-linecap:round;fill:none;"/>
<path d="M3810.011,1008.422 A2150.000,2150.000 40.000 0,1 4772.827,1783.618 L4855.284,1727.043 A2250.000,2250.000 0.000 0,0 3847.686,915.791 Z" style="stroke-width:2.0;stroke:rgb(0,0,0);stroke-linecap:round;fill:rgb(116,196,118);"/>
<text x="4467.6" y="1224.2" font-size="65.0px" font-family="CMUBright-Roman" style="text-anchor:start;fill:rgb(0,0,0);" transform="rotate(308.8,4467.6,1224.2)">Virgin</text>
<path d="M3810.011,1008.422 A2150.000,2150.000 40.000 0,1 4772.827,1783.618 L4855.284,1727.043 A2250.000,2250.000 0.000 0,0 3847.686,915.791 Z" style="stroke-width:2.0;stroke:rgb(0,0,0);stroke-linecap:round;fill:none;"/>
<path d="M4815.907,1848.921 A2150.000,2150.000 40.000 0,1 4036.263,4883.789 L4084.461,4971.407 A2250.000,2250.000 0.000 0,0 4900.368,1795.383 Z" style="stroke-width:2.0;stroke:rgb(0,0,0);stroke-linecap:round;fill:rgb(251,106,74);"/>
<text x="5225.2" y="3596.4" font-size="65.0px" font-family="CMUBright-Roman" style="text-anchor:start;fill:rgb(0,0,0);" transform="rotate(14.4,5225.2,3596.4)">TMobile</text>
<path d="M4815.907,1848.921 A2150.000,2150.000 40.000 0,1 4036.263,4883.789 L4084.461,4971.407 A2250.000,2250.000 0.000 0,0 4900.368,1795.383 Z" style="stroke-width:2.0;stroke:rgb(0,0,0);stroke-linecap:round;fill:none;"/>
<path d="M3967.042,4920.242 A2150.000,2150.000 40.000 0,1 1135.376,4070.364 L1048.650,4120.148 A2250.000,2250.000 0.000 0,0 4012.021,5009.556 Z" style="stroke-width:2.0;stroke:rgb(0,0,0);stroke-linecap:round;fill:rgb(253,141,60);"/>
<text x="2360.8" y="5213.3" font-size="65.0px" font-family="CMUBright-Roman" style="text-anchor:end;fill:rgb(0,0,0);" transform="rotate(-73.3,2360.8,5213.3)">ATT</text>
<path d="M3967.042,4920.242 A2150.000,2150.000 40.000 0,1 1135.376,4070.364 L1048.650,4120.148 A2250.000,2250.000 0.000 0,0 4012.021,5009.556 Z" style="stroke-width:2.0;stroke:rgb(0,0,0);stroke-linecap:round;fill:none;"/>
<path d="M1097.670,4001.818 A2150.000,2150.000 40.000 0,1 1184.093,1848.921 L1099.632,1795.383 A2250.000,2250.000 0.000 0,0 1009.189,4048.414 Z" style="stroke-width:2.0;stroke:rgb(0,0,0);stroke-linecap:round;fill:rgb(107,174,214);"/>
<text x="697.3" y="2931.6" font-size="65.0px" font-family="CMUBright-Roman" style="text-anchor:end;fill:rgb(0,0,0);" transform="rotate(2.3,697.3,2931.6)">Verizon</text>
<path d="M1097.670,4001.818 A2150.000,2150.000 40.000 0,1 1184.093,1848.921 L1099.632,1795.383 A2250.000,2250.000 0.000 0,0 1009.189,4048.414 Z" style="stroke-width:2.0;stroke:rgb(0,0,0);stroke-linecap:round;fill:none;"/>
<path d="M1227.173,1783.618 A2150.000,2150.000 40.000 0,1 2921.781,851.423 L2918.143,751.490 A2250.000,2250.000 0.000 0,0 1144.716,1727.043 Z" style="stroke-width:2.0;stroke:rgb(0,0,0);stroke-linecap:round;fill:rgb(150,150,150);"/>
<text x="1868.2" y="993.4" font-size="65.0px" font-family="CMUBright-Roman" style="text-anchor:end;fill:rgb(0,0,0);" transform="rotate(61.2,1868.2,993.4)">GSM</text>
<path d="M1227.173,1783.618 A2150.000,2150.000 40.000 0,1 2921.781,851.423 L2918.143,751.490 A2250.000,2250.000 0.000 0,0 1144.716,1727.043 Z" style="stroke-width:2.0;stroke:rgb(0,0,0);stroke-linecap:round;fill:none;"/>
</g>
<g id="all_links">
<path d="M 3492.011,929.146 A 2128.500,2128.500 0.00 0,1 3729.6,1000.5 L 3729.6,1000.5 3712.1,1051.7 3695.8,1105.2 3681.2,1160.4 3668.4,1216.9 3657.8,1274.2 3649.4,1331.7 3643.4,1388.9 3640.1,1445.6 3639.6,1501.2 3641.9,1555.5 3647.2,1608.0 3655.5,1658.4 3666.9,1706.5 3681.5,1752.0 3699.2,1794.6 3720.1,1834.2 3744.2,1870.5 3771.3,1903.3 3801.4,1932.6 3834.4,1958.2 3870.3,1980.1 3908.9,1998.2 3950.0,2012.4 3993.5,2022.8 4039.2,2029.4 4086.8,2032.2 4136.3,2031.3 4187.2,2026.8 4239.4,2018.9 4292.5,2007.6 4346.2,1993.3 4400.3,1975.9 4454.3,1955.9 4507.9,1933.5 4560.7,1908.9 4612.2,1882.5 4662.1,1854.6 4709.9,1825.6 4755.1,1795.8  A 2128.500,2128.500 0.00 0,0 4603.0,1599.7 L 4603.0,1599.7 4561.6,1634.6 4517.5,1669.0 4471.2,1702.5 4423.1,1734.7 4373.5,1765.3 4322.9,1793.8 4271.6,1819.9 4219.9,1843.4 4168.2,1864.0 4116.8,1881.3 4065.9,1895.3 4015.8,1905.7 3966.8,1912.3 3919.2,1915.1 3873.0,1913.9 3828.6,1908.6 3786.1,1899.2 3745.7,1885.8 3707.5,1868.2 3671.7,1846.6 3638.4,1821.0 3607.7,1791.5 3579.6,1758.3 3554.2,1721.5 3531.7,1681.2 3511.9,1637.7 3494.9,1591.3 3480.8,1542.1 3469.4,1490.6 3460.8,1437.0 3454.9,1381.7 3451.6,1325.0 3450.8,1267.4 3452.5,1209.3 3456.4,1151.3 3462.5,1093.7 3470.6,1037.1 3480.5,982.0 3492.0,929.1  Z" style="stroke-width: 0.0;  fill: rgb(255,244,80);"/>
<path d="M 3000.000,871.500 A 2128.500,2128.500 0.00 0,1 3492.0,929.1 L 3492.0,929.1 3474.8,992.2 3452.5,1059.2 3425.3,1129.9 3393.4,1204.0 3357.2,1281.4 3316.9,1361.8 3272.7,1444.9 3225.0,1530.7 3173.9,1618.7 3119.6,1708.9 3062.6,1800.9 3002.9,1894.5 2940.8,1989.4 2876.5,2085.5 2810.3,2182.4 2742.4,2279.9 2673.0,2377.8 2602.3,2475.8 2530.5,2573.5 2457.8,2670.8 2384.4,2767.4 2310.6,2863.1 2236.4,2957.4 2162.2,3050.2 2088.1,3141.2 2014.2,3230.1 1940.8,3316.6 1868.0,3400.4 1796.0,3481.3 1724.9,3558.8 1655.0,3632.8 1586.3,3703.0 1519.1,3768.9 1453.5,3830.4 1389.6,3887.1 1327.5,3938.7 1267.5,3984.9 1209.6,4025.3 1154.0,4059.7  A 2128.500,2128.500 0.00 0,0 1449.0,4457.7 L 1449.0,4457.7 1495.1,4411.4 1542.1,4358.7 1589.8,4299.9 1638.2,4235.3 1687.3,4165.4 1737.0,4090.4 1787.1,4010.7 1837.7,3926.6 1888.6,3838.4 1939.8,3746.5 1991.2,3651.2 2042.7,3552.9 2094.1,3451.7 2145.4,3348.2 2196.5,3242.5 2247.3,3135.1 2297.6,3026.1 2347.3,2916.0 2396.4,2805.1 2444.6,2693.6 2491.8,2581.9 2538.0,2470.3 2582.9,2359.0 2626.5,2248.4 2668.5,2138.8 2708.8,2030.5 2747.3,1923.8 2783.7,1818.9 2818.0,1716.2 2849.9,1616.0 2879.2,1518.5 2905.9,1424.0 2929.6,1332.9 2950.3,1245.3 2967.6,1161.7 2981.5,1082.2 2991.6,1007.2 2997.9,936.8 3000.0,871.5  Z" style="stroke-width: 0.0;  fill: rgb(255,244,80);"/>
<path d="M 890.817,3286.109 A 2128.500,2128.500 0.00 0,1 881.8,2790.8 L 881.8,2790.8 950.5,2795.6 1025.0,2797.4 1105.0,2796.3 1190.3,2792.8 1280.5,2787.0 1375.3,2779.4 1474.5,2770.1 1577.7,2759.3 1684.6,2747.4 1794.9,2734.4 1908.4,2720.6 2024.5,2706.2 2143.2,2691.4 2264.0,2676.2 2386.6,2660.9 2510.7,2645.4 2636.0,2630.0 2762.1,2614.7 2888.8,2599.6 3015.7,2584.8 3142.4,2570.2 3268.6,2555.9 3394.1,2541.9 3518.4,2528.3 3641.2,2514.9 3762.3,2501.7 3881.1,2488.7 3997.5,2475.9 4111.0,2463.0 4221.4,2450.1 4328.1,2437.1 4431.0,2423.7 4529.7,2409.8 4623.7,2395.3 4712.8,2380.1 4796.6,2363.8 4874.7,2346.3 4946.8,2327.4 5012.5,2306.9  A 2128.500,2128.500 0.00 0,0 4797.7,1860.4 L 4797.7,1860.4 4738.6,1895.6 4672.8,1930.7 4600.9,1965.7 4523.1,2000.9 4440.0,2036.4 4351.8,2072.2 4259.1,2108.5 4162.0,2145.3 4061.2,2182.7 3956.8,2220.8 3849.3,2259.5 3739.1,2298.9 3626.4,2339.0 3511.7,2379.8 3395.3,2421.2 3277.5,2463.2 3158.7,2505.8 3039.2,2548.9 2919.2,2592.4 2799.3,2636.2 2679.5,2680.2 2560.3,2724.2 2442.0,2768.1 2324.8,2811.8 2209.1,2855.1 2095.1,2897.8 1983.1,2939.7 1873.3,2980.5 1766.2,3020.1 1661.9,3058.3 1560.6,3094.6 1462.7,3128.9 1368.3,3160.9 1277.8,3190.3 1191.4,3216.7 1109.2,3239.9 1031.6,3259.4 958.7,3274.9 890.8,3286.1  Z" style="stroke-width: 0.0;  fill: rgb(107,174,214);"/>
<path d="M 938.440,3529.606 A 2128.500,2128.500 0.00 0,1 890.8,3286.1 L 890.8,3286.1 951.4,3280.0 1016.4,3277.7 1085.6,3278.9 1158.5,3283.8 1234.9,3292.3 1314.4,3304.4 1396.6,3320.1 1481.2,3339.2 1567.9,3361.8 1656.4,3387.7 1746.3,3417.0 1837.4,3449.4 1929.3,3485.0 2021.7,3523.6 2114.4,3565.0 2207.0,3609.3 2299.2,3656.2 2390.9,3705.7 2481.7,3757.5 2571.3,3811.6 2659.4,3867.8 2745.9,3925.8 2830.4,3985.6 2912.7,4046.9 2992.6,4109.6 3069.8,4173.4 3144.1,4238.1 3215.2,4303.6 3283.0,4369.5 3347.2,4435.7 3407.6,4501.9 3463.9,4567.9 3516.1,4633.3 3563.8,4698.0 3606.9,4761.6 3645.3,4823.8 3678.6,4884.5 3706.8,4943.1 3729.6,4999.5  A 2128.500,2128.500 0.00 0,0 3957.4,4901.0 L 3957.4,4901.0 3928.1,4847.7 3893.3,4792.7 3853.1,4736.4 3807.8,4679.0 3757.6,4620.8 3702.6,4562.2 3643.2,4503.2 3579.6,4444.3 3511.9,4385.6 3440.5,4327.3 3365.5,4269.7 3287.2,4213.0 3205.9,4157.3 3121.8,4102.9 3035.1,4050.0 2946.2,3998.6 2855.3,3949.1 2762.7,3901.5 2668.6,3856.0 2573.3,3812.7 2477.2,3771.8 2380.4,3733.3 2283.3,3697.4 2186.1,3664.3 2089.3,3633.8 1993.0,3606.3 1897.5,3581.7 1803.3,3560.0 1710.6,3541.5 1619.7,3526.0 1531.0,3513.7 1444.7,3504.5 1361.2,3498.5 1280.9,3495.8 1204.1,3496.2 1131.0,3499.8 1062.2,3506.6 997.9,3516.5 938.4,3529.6  Z" style="stroke-width: 0.0;  fill: rgb(107,174,214);"/>
<path d="M 1116.693,3991.800 A 2128.500,2128.500 0.00 0,1 938.4,3529.6 L 938.4,3529.6 990.1,3516.7 1043.3,3504.3 1097.4,3492.5 1151.8,3481.6 1205.9,3471.5 1259.3,3462.6 1311.3,3455.0 1361.6,3448.7 1409.7,3443.9 1455.3,3440.7 1497.9,3439.2 1537.3,3439.4 1573.2,3441.3 1605.2,3445.1 1633.2,3450.8 1657.0,3458.3 1676.5,3467.7 1691.4,3479.0 1701.8,3492.1 1707.6,3507.0 1708.7,3523.7 1705.2,3542.1 1697.1,3562.1 1684.5,3583.7 1667.5,3606.7 1646.3,3631.0 1621.1,3656.5 1592.0,3683.1 1559.4,3710.6 1523.5,3738.8 1484.6,3767.6 1443.1,3796.7 1399.4,3826.0 1353.9,3855.2 1307.1,3884.1 1259.4,3912.5 1211.4,3940.1 1163.6,3966.6 1116.7,3991.8  A 2128.500,2128.500 0.00 0,0 1116.7,3991.8 L 1116.7,3991.8 1163.7,3967.1 1211.8,3941.7 1260.5,3916.0 1309.3,3890.4 1357.5,3865.0 1404.7,3840.1 1450.5,3816.0 1494.3,3792.9 1535.9,3771.0 1574.9,3750.5 1610.9,3731.6 1643.6,3714.3 1672.8,3698.9 1698.3,3685.5 1719.8,3674.2 1737.2,3665.0 1750.4,3658.1 1759.3,3653.4 1763.7,3651.1 1763.7,3651.1 1759.3,3653.4 1750.4,3658.1 1737.2,3665.0 1719.8,3674.2 1698.3,3685.5 1672.8,3698.9 1643.6,3714.3 1610.9,3731.6 1574.9,3750.5 1535.9,3771.0 1494.3,3792.9 1450.5,3816.0 1404.7,3840.1 1357.5,3865.0 1309.3,3890.4 1260.5,3916.0 1211.8,3941.7 1163.7,3967.1 1116.7,3991.8  Z" style="stroke-width: 0.0;  fill: rgb(107,174,214);"/>
<path d="M 1244.901,1795.782 A 2128.500,2128.500 0.00 0,1 2922.6,872.9 L 2922.6,872.9 2923.1,928.3 2920.8,986.0 2915.6,1045.4 2907.3,1106.0 2896.0,1167.4 2881.6,1229.0 2864.1,1290.5 2843.5,1351.3 2819.7,1411.1 2792.8,1469.5 2762.8,1526.1 2729.9,1580.7 2693.9,1633.0 2655.1,1682.7 2613.4,1729.4 2569.1,1773.1 2522.2,1813.5 2472.8,1850.5 2421.1,1883.8 2367.2,1913.4 2311.4,1939.2 2253.7,1961.2 2194.5,1979.2 2133.8,1993.3 2072.0,2003.4 2009.3,2009.6 1945.9,2012.0 1882.1,2010.6 1818.2,2005.6 1754.5,1997.0 1691.3,1985.1 1628.9,1970.0 1567.6,1951.9 1507.8,1931.0 1450.0,1907.7 1394.3,1882.2 1341.3,1854.9 1291.4,1825.9 1244.9,1795.8  A 2128.500,2128.500 0.00 0,0 1244.9,1795.8 L 1244.9,1795.8 1288.7,1825.8 1333.6,1856.6 1379.0,1887.8 1424.4,1918.9 1469.3,1949.7 1513.3,1979.9 1555.9,2009.2 1596.8,2037.2 1635.6,2063.8 1671.9,2088.8 1705.4,2111.8 1736.0,2132.7 1763.2,2151.4 1786.9,2167.7 1807.0,2181.4 1823.2,2192.6 1835.5,2201.0 1843.7,2206.6 1847.9,2209.5 1847.9,2209.5 1843.7,2206.6 1835.5,2201.0 1823.2,2192.6 1807.0,2181.4 1786.9,2167.7 1763.2,2151.4 1736.0,2132.7 1705.4,2111.8 1671.9,2088.8 1635.6,2063.8 1596.8,2037.2 1555.9,2009.2 1513.3,1979.9 1469.3,1949.7 1424.4,1918.9 1379.0,1887.8 1333.6,1856.6 1288.7,1825.8 1244.9,1795.8  Z" style="stroke-width: 0.0;  fill: rgb(150,150,150);"/>
<path d="M 4235.950,1267.101 A 2128.500,2128.500 0.00 0,1 4603.0,1599.7 L 4603.0,1599.7 4562.7,1634.5 4520.8,1669.5 4477.7,1704.3 4434.1,1738.6 4390.3,1771.9 4346.6,1803.8 4303.6,1834.1 4261.5,1862.3 4220.6,1888.2 4181.4,1911.6 4144.0,1932.1 4108.8,1949.7 4075.9,1964.1 4045.5,1975.1 4018.0,1982.6 3993.3,1986.6 3971.7,1987.0 3953.3,1983.6 3938.1,1976.6 3926.3,1965.8 3917.8,1951.4 3912.6,1933.4 3910.8,1911.9 3912.4,1887.0 3917.2,1858.8 3925.2,1827.5 3936.2,1793.4 3950.3,1756.6 3967.0,1717.4 3986.4,1676.0 4008.2,1632.8 4032.2,1588.2 4058.0,1542.3 4085.5,1495.8 4114.3,1448.9 4144.2,1402.1 4174.6,1355.8 4205.4,1310.7 4235.9,1267.1  A 2128.500,2128.500 0.00 0,0 4235.9,1267.1 L 4235.9,1267.1 4205.1,1310.3 4173.5,1354.6 4141.6,1399.5 4109.6,1444.3 4077.9,1488.7 4046.9,1532.1 4016.9,1574.2 3988.1,1614.6 3960.8,1652.8 3935.3,1688.7 3911.6,1721.8 3890.2,1751.9 3871.0,1778.8 3854.3,1802.3 3840.1,1822.1 3828.7,1838.1 3820.1,1850.2 3814.3,1858.3 3811.3,1862.4 3811.3,1862.4 3814.3,1858.3 3820.1,1850.2 3828.7,1838.1 3840.1,1822.1 3854.3,1802.3 3871.0,1778.8 3890.2,1751.9 3911.6,1721.8 3935.3,1688.7 3960.8,1652.8 3988.1,1614.6 4016.9,1574.2 4046.9,1532.1 4077.9,1488.7 4109.6,1444.3 4141.6,1399.5 4173.5,1354.6 4205.1,1310.3 4235.9,1267.1  Z" style="stroke-width: 0.0;  fill: rgb(116,196,118);"/>
<path d="M 4025.900,1135.049 A 2128.500,2128.500 0.00 0,1 4235.9,1267.1 L 4235.9,1267.1 4193.3,1323.8 4144.8,1383.2 4090.7,1445.4 4031.7,1510.3 3968.2,1578.0 3900.7,1648.4 3829.6,1721.4 3755.4,1797.1 3678.4,1875.3 3599.0,1955.9 3517.7,2038.9 3434.7,2124.1 3350.5,2211.4 3265.3,2300.7 3179.4,2391.8 3093.3,2484.5 3007.0,2578.6 2921.0,2674.0 2835.4,2770.5 2750.4,2867.7 2666.4,2965.5 2583.4,3063.6 2501.7,3161.7 2421.4,3259.6 2342.7,3356.9 2265.7,3453.3 2190.5,3548.5 2117.2,3642.2 2045.9,3733.9 1976.7,3823.4 1909.5,3910.2 1844.6,3994.0 1781.7,4074.2 1721.1,4150.6 1662.5,4222.6 1606.1,4289.8 1551.8,4351.7 1499.4,4407.8 1449.0,4457.7  A 2128.500,2128.500 0.00 0,0 1629.1,4628.3 L 1629.1,4628.3 1673.4,4572.9 1718.9,4511.0 1765.7,4443.2 1813.9,4369.9 1863.6,4291.6 1915.0,4208.7 1968.1,4121.7 2022.9,4030.9 2079.4,3936.9 2137.8,3840.0 2197.9,3740.5 2259.8,3639.0 2323.4,3535.7 2388.7,3430.9 2455.5,3325.1 2523.9,3218.6 2593.6,3111.6 2664.6,3004.6 2736.7,2897.7 2809.8,2791.2 2883.6,2685.5 2957.9,2580.7 3032.6,2477.1 3107.4,2375.0 3182.1,2274.6 3256.3,2176.0 3329.8,2079.4 3402.3,1985.2 3473.4,1893.3 3542.9,1804.0 3610.3,1717.3 3675.2,1633.6 3737.3,1552.8 3796.2,1475.0 3851.4,1400.4 3902.4,1329.0 3948.8,1261.0 3990.2,1196.3 4025.9,1135.0  Z" style="stroke-width: 0.0;  fill: rgb(116,196,118);"/>
<path d="M 5118.196,2790.815 A 2128.500,2128.500 0.00 0,1 4025.9,4865.0 L 4025.9,4865.0 4000.1,4814.5 3976.1,4760.2 3954.2,4702.2 3934.6,4641.1 3917.5,4577.2 3903.2,4511.0 3891.8,4442.7 3883.6,4372.7 3878.7,4301.4 3877.2,4229.2 3879.2,4156.2 3884.8,4082.9 3894.1,4009.6 3907.1,3936.5 3923.8,3863.8 3944.2,3792.0 3968.4,3721.2 3996.2,3651.6 4027.7,3583.6 4062.6,3517.2 4100.9,3452.8 4142.6,3390.5 4187.3,3330.5 4234.9,3273.0 4285.4,3218.1 4338.3,3166.0 4393.5,3116.9 4450.8,3070.8 4509.8,3027.9 4570.3,2988.3 4631.8,2952.0 4694.2,2919.2 4756.9,2889.9 4819.6,2864.2 4881.9,2842.1 4943.4,2823.8 5003.6,2809.1 5062.1,2798.1 5118.2,2790.8  A 2128.500,2128.500 0.00 0,0 5118.2,2790.8 L 5118.2,2790.8 5065.3,2796.0 5011.2,2801.4 4956.4,2806.8 4901.6,2812.2 4847.4,2817.6 4794.3,2822.8 4742.8,2827.9 4693.5,2832.8 4646.7,2837.4 4602.9,2841.7 4562.4,2845.7 4525.6,2849.3 4492.7,2852.6 4464.0,2855.4 4439.8,2857.8 4420.3,2859.7 4405.4,2861.2 4395.5,2862.2 4390.5,2862.7 4390.5,2862.7 4395.5,2862.2 4405.4,2861.2 4420.3,2859.7 4439.8,2857.8 4464.0,2855.4 4492.7,2852.6 4525.6,2849.3 4562.4,2845.7 4602.9,2841.7 4646.7,2837.4 4693.5,2832.8 4742.8,2827.9 4794.3,2822.8 4847.4,2817.6 4901.6,2812.2 4956.4,2806.8 5011.2,2801.4 5065.3,2796.0 5118.2,2790.8  Z" style="stroke-width: 0.0;  fill: rgb(251,106,74);"/>
<path d="M 5079.463,2545.747 A 2128.500,2128.500 0.00 0,1 5118.2,2790.8 L 5118.2,2790.8 5053.0,2799.4 4983.2,2812.5 4908.9,2829.9 4830.6,2851.4 4748.3,2876.7 4662.5,2905.6 4573.2,2937.8 4480.8,2973.2 4385.6,3011.4 4287.8,3052.4 4187.7,3095.7 4085.6,3141.4 3981.7,3189.1 3876.3,3238.7 3769.7,3290.0 3662.1,3342.8 3554.0,3396.9 3445.5,3452.1 3336.9,3508.4 3228.6,3565.4 3120.8,3623.1 3013.9,3681.3 2908.0,3739.9 2803.7,3798.7 2701.1,3857.6 2600.6,3916.5 2502.4,3975.1 2407.0,4033.5 2314.6,4091.5 2225.5,4149.0 2140.1,4205.9 2058.7,4262.1 1981.6,4317.4 1909.2,4371.9 1841.8,4425.4 1779.8,4477.8 1723.4,4529.2 1673.1,4579.3 1629.1,4628.3  A 2128.500,2128.500 0.00 0,0 1827.9,4776.7 L 1827.9,4776.7 1865.9,4723.0 1910.0,4667.4 1960.0,4609.8 2015.6,4550.5 2076.3,4489.5 2141.8,4427.0 2211.9,4363.0 2286.3,4297.8 2364.5,4231.3 2446.2,4163.9 2531.3,4095.5 2619.3,4026.4 2709.9,3956.7 2802.9,3886.6 2898.0,3816.1 2994.8,3745.6 3093.0,3675.1 3192.5,3604.8 3292.8,3535.0 3393.8,3465.7 3495.1,3397.2 3596.4,3329.7 3697.5,3263.4 3798.2,3198.5 3898.1,3135.1 3997.0,3073.6 4094.7,3014.1 4190.8,2956.9 4285.2,2902.1 4377.5,2850.1 4467.7,2801.0 4555.3,2755.2 4640.2,2712.8 4722.1,2674.1 4800.9,2639.4 4876.2,2609.0 4947.9,2583.0 5015.7,2561.8 5079.5,2545.7  Z" style="stroke-width: 0.0;  fill: rgb(251,106,74);"/>
<path d="M 5012.475,2306.851 A 2128.500,2128.500 0.00 0,1 5079.5,2545.7 L 5079.5,2545.7 5014.9,2557.7 4944.5,2566.7 4868.6,2573.0 4787.5,2576.7 4701.6,2577.9 4611.1,2576.8 4516.4,2573.6 4417.7,2568.3 4315.5,2561.1 4210.0,2552.2 4101.6,2541.6 3990.5,2529.4 3877.1,2515.8 3761.7,2500.9 3644.7,2484.7 3526.3,2467.3 3407.0,2448.8 3286.9,2429.4 3166.5,2409.0 3046.1,2387.7 2926.1,2365.6 2806.6,2342.7 2688.2,2319.2 2571.0,2294.9 2455.5,2270.0 2342.0,2244.5 2230.8,2218.4 2122.3,2191.8 2016.8,2164.5 1914.6,2136.8 1816.2,2108.5 1721.7,2079.6 1631.6,2050.2 1546.2,2020.2 1465.9,1989.6 1391.0,1958.3 1321.9,1926.4 1258.8,1893.8 1202.3,1860.4  A 2128.500,2128.500 0.00 0,0 1081.9,2077.4 L 1081.9,2077.4 1141.9,2103.9 1208.4,2129.0 1280.7,2152.6 1358.8,2174.9 1442.1,2196.0 1530.4,2215.9 1623.3,2234.6 1720.5,2252.3 1821.6,2268.9 1926.3,2284.6 2034.2,2299.4 2145.1,2313.2 2258.6,2326.2 2374.3,2338.3 2491.9,2349.6 2611.1,2360.1 2731.5,2369.7 2852.7,2378.5 2974.6,2386.5 3096.6,2393.6 3218.6,2399.9 3340.1,2405.2 3460.8,2409.7 3580.3,2413.2 3698.5,2415.6 3814.8,2417.1 3929.0,2417.4 4040.7,2416.5 4149.7,2414.4 4255.5,2411.0 4357.9,2406.3 4456.4,2400.0 4550.9,2392.2 4640.9,2382.7 4726.1,2371.5 4806.2,2358.4 4880.8,2343.4 4949.7,2326.2 5012.5,2306.9  Z" style="stroke-width: 0.0;  fill: rgb(251,106,74);"/>
<path d="M 2042.628,4901.040 A 2128.500,2128.500 0.00 0,1 1827.9,4776.7 L 1827.9,4776.7 1866.1,4715.7 1905.0,4648.3 1944.6,4574.9 1985.4,4496.0 2027.3,4412.1 2070.6,4323.6 2115.4,4231.1 2161.8,4134.9 2209.8,4035.5 2259.7,3933.3 2311.4,3828.6 2364.9,3721.9 2420.3,3613.6 2477.5,3504.0 2536.5,3393.4 2597.3,3282.2 2659.7,3170.7 2723.7,3059.3 2789.1,2948.1 2855.8,2837.6 2923.7,2727.9 2992.5,2619.4 3062.1,2512.2 3132.1,2406.6 3202.5,2302.9 3272.8,2201.2 3342.9,2101.7 3412.3,2004.6 3480.8,1910.1 3548.0,1818.4 3613.6,1729.5 3677.1,1643.6 3738.1,1560.9 3796.1,1481.4 3850.8,1405.2 3901.7,1332.4 3948.2,1263.1 3989.7,1197.3 4025.9,1135.0  A 2128.500,2128.500 0.00 0,0 3801.9,1028.3 L 3801.9,1028.3 3773.2,1094.4 3739.6,1164.5 3701.5,1238.8 3659.5,1317.0 3614.0,1399.0 3565.6,1484.8 3514.6,1574.1 3461.6,1666.7 3406.8,1762.6 3350.7,1861.6 3293.7,1963.4 3236.0,2067.9 3178.0,2174.8 3120.0,2284.0 3062.2,2395.3 3004.9,2508.3 2948.3,2622.8 2892.6,2738.6 2837.9,2855.5 2784.5,2973.0 2732.5,3091.0 2681.9,3209.2 2632.9,3327.2 2585.5,3444.7 2539.7,3561.4 2495.6,3676.9 2453.3,3790.9 2412.5,3903.1 2373.3,4013.1 2335.7,4120.4 2299.5,4224.7 2264.6,4325.7 2230.9,4422.8 2198.2,4515.7 2166.3,4603.9 2135.1,4687.0 2104.2,4764.5 2073.5,4836.0 2042.6,4901.0  Z" style="stroke-width: 0.0;  fill: rgb(253,141,60);"/>
<path d="M 3000.000,5128.500 A 2128.500,2128.500 0.00 0,1 2042.6,4901.0 L 2042.6,4901.0 2067.5,4853.4 2094.4,4805.2 2123.2,4756.9 2153.7,4709.0 2185.6,4662.2 2218.6,4616.8 2252.6,4573.4 2287.4,4532.3 2322.7,4493.9 2358.5,4458.7 2394.4,4426.8 2430.3,4398.6 2466.1,4374.4 2501.6,4354.3 2536.7,4338.5 2571.2,4327.2 2604.9,4320.4 2637.9,4318.4 2669.8,4321.0 2700.7,4328.3 2730.4,4340.4 2758.9,4357.0 2786.0,4378.2 2811.7,4403.8 2836.0,4433.7 2858.6,4467.6 2879.7,4505.4 2899.1,4546.7 2916.9,4591.3 2932.9,4638.9 2947.2,4689.1 2959.8,4741.4 2970.7,4795.5 2979.8,4850.9 2987.2,4907.0 2992.8,4963.5 2996.9,5019.6 2999.2,5074.8 3000.0,5128.5  A 2128.500,2128.500 0.00 0,0 3000.0,5128.5 L 3000.0,5128.5 3000.0,5075.4 3000.0,5021.0 3000.0,4965.9 3000.0,4910.9 3000.0,4856.4 3000.0,4803.0 3000.0,4751.3 3000.0,4701.7 3000.0,4654.7 3000.0,4610.7 3000.0,4570.0 3000.0,4533.0 3000.0,4500.0 3000.0,4471.2 3000.0,4446.8 3000.0,4427.2 3000.0,4412.3 3000.0,4402.3 3000.0,4397.3 3000.0,4397.3 3000.0,4402.3 3000.0,4412.3 3000.0,4427.2 3000.0,4446.8 3000.0,4471.2 3000.0,4500.0 3000.0,4533.0 3000.0,4570.0 3000.0,4610.7 3000.0,4654.7 3000.0,4701.7 3000.0,4751.3 3000.0,4803.0 3000.0,4856.4 3000.0,4910.9 3000.0,4965.9 3000.0,5021.0 3000.0,5075.4 3000.0,5128.5  Z" style="stroke-width: 0.0;  fill: rgb(253,141,60);"/>
<path d="M 3729.649,4999.531 A 2128.500,2128.500 0.00 0,1 3000.0,5128.5 L 3000.0,5128.5 2997.8,5065.8 2991.4,4998.7 2980.8,4927.4 2966.2,4852.3 2947.6,4773.7 2925.3,4691.9 2899.3,4607.3 2869.9,4520.0 2837.0,4430.4 2800.9,4338.8 2761.7,4245.5 2719.5,4150.8 2674.6,4055.0 2627.0,3958.3 2576.9,3861.1 2524.4,3763.6 2469.8,3666.2 2413.2,3569.0 2354.7,3472.5 2294.5,3376.8 2232.8,3282.2 2169.8,3189.1 2105.7,3097.6 2040.6,3008.1 1974.7,2920.8 1908.2,2836.0 1841.4,2753.9 1774.3,2674.9 1707.2,2599.1 1640.3,2526.9 1573.8,2458.4 1508.0,2394.0 1442.9,2333.9 1378.9,2278.4 1316.1,2227.6 1254.8,2181.9 1195.1,2141.4 1137.4,2106.5 1081.9,2077.4  A 2128.500,2128.500 0.00 0,0 881.8,2790.8 L 881.8,2790.8 944.0,2799.1 1010.2,2812.2 1080.1,2829.7 1153.3,2851.6 1229.7,2877.8 1308.9,2908.1 1390.6,2942.2 1474.6,2980.1 1560.5,3021.6 1648.1,3066.6 1737.1,3114.7 1827.2,3166.0 1918.2,3220.2 2009.7,3277.0 2101.5,3336.5 2193.3,3398.2 2284.9,3462.2 2376.1,3528.1 2466.4,3595.8 2555.7,3665.1 2643.8,3735.7 2730.3,3807.6 2815.0,3880.4 2897.7,3954.0 2978.1,4028.1 3055.9,4102.6 3131.0,4177.2 3203.1,4251.7 3271.9,4325.9 3337.2,4399.6 3398.8,4472.5 3456.4,4544.4 3509.8,4615.0 3558.8,4684.2 3603.2,4751.7 3642.7,4817.2 3677.0,4880.5 3706.1,4941.4 3729.6,4999.5  Z" style="stroke-width: 0.0;  fill: rgb(253,141,60);"/>
</g>
</svg>
